<?xml version="1.0" encoding="utf-8"?><svg xmlns="http://www.w3.org/2000/svg" xml:space="preserve" id="Icons" x="0" y="0" version="1.1" viewBox="0 0 48 48"><style>.st3{fill:none;stroke:#45413c;stroke-linecap:round;stroke-linejoin:round;stroke-miterlimit:10}.st21{fill:#87898c}.st22{fill:#e0e0e0}.st29{fill:#bdbec0}</style><g id="XMLID_17674_"><path id="XMLID_17692_" d="M32.2 43H15.8c-1.1 0-1.9-.9-1.6-1.9l2.9-9.8h9.3c3.4 0 6.3 2.2 6.8 5.2l.8 4.8c0 .9-.8 1.7-1.8 1.7z" class="st22"/><path id="XMLID_17691_" d="M26.3 31.3H17l-1.5 5.3c3.2.4 7.9.5 10.9-.6 2.9-1.1 4.6-1.8 5.4-2.3-1.3-1.5-3.3-2.4-5.5-2.4z" class="st29"/><path id="XMLID_17690_" d="M32.2 43H15.8c-1.1 0-1.9-.9-1.6-1.9l2.9-9.8h9.3c3.4 0 6.3 2.2 6.8 5.2l.8 4.8c0 .9-.8 1.7-1.8 1.7z" class="st3"/><path id="XMLID_17689_" d="M12.3 33.3c2.1 1.1 9 2.2 12.8 0 3.8-2.2 5.4-3.3 5.5-4 .1-.7 1.4-14 2.4-18.9 1-4.9-.6-7-3.9-7.4-3.3-.4-6.6 1.2-7.7 2.4-1.1 1.1-3.2 3.1-4.1 4.4-.9 1.3.3 3.9.3 3.9s-3.6 9.5-4.4 13.1c-.9 3.7-1.8 6-.9 6.5z" class="st29"/><path id="XMLID_17688_" d="M29 3c-3.3-.4-6.6 1.2-7.7 2.4-1.1 1.1-3.2 3.1-4.1 4.4-.7 1.1-.1 3.1.2 3.7 1.4-.6 5-1.8 8.4-1.3 2.4.3 4.8 1.3 6.5 2.2.2-1.6.4-3 .6-4 1-4.9-.6-7-3.9-7.4z" class="st21"/><path id="XMLID_17687_" d="M29 3c-3.3-.4-6.6 1.2-7.7 2.4-1.1 1.1-3.2 3.1-4.1 4.4 1.3-1.6 7.4-2.4 8.8-2 1.4.4 2.3 3.6 2.3 3.6s-2.4 7.7-4.7 13.3c-2.2 5.6-4.2 9.9-5.7 9.8 2.5.2 5.3-.1 7.2-1.2 3.8-2.2 5.4-3.3 5.5-4 .1-.7 1.4-14 2.4-18.9.9-4.9-.7-7-4-7.4z" class="st22"/><g id="XMLID_17685_"><path id="XMLID_17686_" fill="#fff" d="M29 5.8c2.3.3 3.7 1.4 4.1 3.5.5-4.1-1-6-4.1-6.4-3.3-.4-6.6 1.2-7.7 2.4-1.1 1.1-3.2 3.1-4.1 4.4.6-.8 2.4-1.4 4.2-1.7 1.1-1.1 4.4-2.6 7.6-2.2z"/></g><ellipse id="XMLID_17684_" cx="24" cy="44.4" fill="#45413c" opacity=".15" rx="12" ry="1.6"/><path id="XMLID_17683_" d="M12.3 33.3c2.1 1.1 9 2.2 12.8 0 3.8-2.2 5.4-3.3 5.5-4 .1-.7 1.4-14 2.4-18.9 1-4.9-.6-7-3.9-7.4-3.3-.4-6.6 1.2-7.7 2.4-1.1 1.1-3.2 3.1-4.1 4.4-.9 1.3.3 3.9.3 3.9s-3.6 9.5-4.4 13.1c-.9 3.7-1.8 6-.9 6.5z" class="st3"/><path id="XMLID_17682_" d="M29 3c-3.3-.4-6.6 1.2-7.7 2.4-1.1 1.1-3.2 3.1-4.1 4.4 1.3-1.6 7.4-2.4 8.8-2 1.4.4 2.3 3.6 2.3 3.6s-2.4 7.7-4.7 13.3c-2.2 5.6-4.2 9.9-5.7 9.8 2.5.2 5.3-.1 7.2-1.2 3.8-2.2 5.4-3.3 5.5-4 .1-.7 1.4-14 2.4-18.9.9-4.9-.7-7-4-7.4z" class="st3"/><path id="XMLID_17681_" d="M20 9.8s-5.1 6-6.5 8c-1.4 2-1.6 2.9-1.6 3.9.1 1 2.1 1.7 2.1 1.7s5.4-.6 6-1.4c.6-.8 3.5-9.8 3.5-9.8s-.4-3-3.5-2.4z" class="st22"/><path id="XMLID_17680_" d="M18.6 20.9c-2.2-.7-5.7-1.2-6.5-.4-.1.4-.2.8-.1 1.3.1 1 2.1 1.7 2.1 1.7s5.4-.6 6-1.4c0 0 .1-.1.1-.2-.5-.5-1-.8-1.6-1z" class="st21"/><path id="XMLID_17679_" d="M20 9.8s-5.1 6-6.5 8c-1.4 2-1.6 2.9-1.6 3.9.1 1 2.1 1.7 2.1 1.7s5.4-.6 6-1.4c.6-.8 3.5-9.8 3.5-9.8s-.4-3-3.5-2.4z" class="st3"/><path id="XMLID_17678_" d="M32.7 5.3S27.3 20 27.9 22.2c.6 2.2 3 3 3 3s1.2 0 1.7-2.8c.6-2.8 2.6-13.8 1.9-15.8-.5-2-1.8-1.3-1.8-1.3z" class="st22"/><path id="XMLID_17677_" fill="#f0f0f0" d="M33.3 9.7c.5.8.6 3.3.6 6.1.6-3.8 1.1-8 .8-9.1-.6-2-1.9-1.3-1.9-1.3s-.5 1.3-1.1 3.3c.4-.1 1 .1 1.6 1z"/><path id="XMLID_17676_" d="M32.7 5.3S27.3 20 27.9 22.2c.6 2.2 3 3 3 3s1.2 0 1.7-2.8c.6-2.8 2.6-13.8 1.9-15.8-.5-2-1.8-1.3-1.8-1.3z" class="st3"/><path id="XMLID_17675_" d="M12.9 27.7s4.4-.4 5.7 0" class="st3"/></g></svg>