<svg viewBox="0 0 64 64" xmlns="http://www.w3.org/2000/svg" id="Moai--Streamline-Emoji" height="64" width="64">
  <desc>
    Moai Streamline Emoji: https://streamlinehq.com
  </desc>
  <path d="M42.959999999999994 57.33333333333333H21a2.04 2.04 0 0 1 -2.1466666666666665 -2.48L22.666666666666664 41.74666666666666h12.386666666666665a8.879999999999999 8.879999999999999 0 0 1 9.053333333333333 6.986666666666666l1.0266666666666666 6.333333333333333a2.08 2.08 0 0 1 -2.173333333333333 2.2666666666666666Z" fill="#e0e0e0" stroke-width="1"></path>
  <path d="M35.08 41.74666666666666H22.666666666666664l-2.04 7.053333333333333c4.279999999999999 0.5733333333333333 10.52 0.6933333333333334 14.493333333333332 -0.7999999999999999a45 45 0 0 0 7.173333333333333 -3.1066666666666665 9.613333333333333 9.613333333333333 0 0 0 -7.213333333333333 -3.1466666666666665Z" fill="#bdbec0" stroke-width="1"></path>
  <path d="M42.959999999999994 57.33333333333333H21a2.04 2.04 0 0 1 -2.1466666666666665 -2.48L22.666666666666664 41.74666666666666h12.386666666666665a8.879999999999999 8.879999999999999 0 0 1 9.053333333333333 6.986666666666666l1.0266666666666666 6.333333333333333a2.08 2.08 0 0 1 -2.173333333333333 2.2666666666666666Z" fill="none" stroke="#45413c" stroke-linecap="round" stroke-linejoin="round" stroke-width="1"></path>
  <path d="M16.37333333333333 44.38666666666666c2.786666666666666 1.48 12 2.893333333333333 17.05333333333333 0s7.2 -4.413333333333333 7.32 -5.333333333333333 1.853333333333333 -18.666666666666664 3.1333333333333333 -25.186666666666667S43.06666666666666 4.573333333333333 38.666666666666664 4a13.96 13.96 0 0 0 -10.333333333333332 3.1333333333333333 52.93333333333334 52.93333333333334 0 0 0 -5.453333333333333 5.92c-1.16 1.7466666666666666 0.3466666666666667 5.226666666666667 0.3466666666666667 5.226666666666667s-4.76 12.653333333333332 -5.799999999999999 17.52 -2.16 7.986666666666666 -1.0533333333333332 8.586666666666666Z" fill="#bdbec0" stroke-width="1"></path>
  <path d="M38.666666666666664 4a13.96 13.96 0 0 0 -10.333333333333332 3.1333333333333333 52.93333333333334 52.93333333333334 0 0 0 -5.453333333333333 5.92c-0.9733333333333333 1.4666666666666668 0 4.133333333333333 0.24 4.96a24.546666666666667 24.546666666666667 0 0 1 11.239999999999998 -1.7333333333333334 29.88 29.88 0 0 1 8.693333333333332 2.88c0.27999999999999997 -2.08 0.5733333333333333 -3.9333333333333336 0.84 -5.333333333333333C45.14666666666666 7.359999999999999 43.06666666666666 4.573333333333333 38.666666666666664 4Z" fill="#87898c" stroke-width="1"></path>
  <path d="M38.666666666666664 4a13.96 13.96 0 0 0 -10.333333333333332 3.1333333333333333 52.93333333333334 52.93333333333334 0 0 0 -5.453333333333333 5.92c1.7466666666666666 -2.08 9.866666666666667 -3.253333333333333 11.719999999999999 -2.6666666666666665s3.0266666666666664 4.76 3.0266666666666664 4.76 -3.253333333333333 10.333333333333332 -6.239999999999999 17.759999999999998 -5.6 13.146666666666665 -7.573333333333332 13.12a18.173333333333332 18.173333333333332 0 0 0 9.626666666666665 -1.6266666666666665c5.1066666666666665 -2.9066666666666667 7.2 -4.413333333333333 7.32 -5.333333333333333s1.853333333333333 -18.666666666666664 3.1333333333333333 -25.186666666666667S43.06666666666666 4.573333333333333 38.666666666666664 4Z" fill="#e0e0e0" stroke-width="1"></path>
  <path d="M38.666666666666664 7.7333333333333325c3 0.39999999999999997 4.92 1.8133333333333335 5.453333333333333 4.7333333333333325 0.72 -5.506666666666666 -1.3333333333333333 -8 -5.453333333333333 -8.48a13.96 13.96 0 0 0 -10.333333333333332 3.1333333333333333 52.93333333333334 52.93333333333334 0 0 0 -5.453333333333333 5.92c0.84 -1.0133333333333332 3.1866666666666665 -1.8 5.586666666666667 -2.28A13.919999999999998 13.919999999999998 0 0 1 38.666666666666664 7.7333333333333325Z" fill="#ffffff" stroke-width="1"></path>
  <path d="M15.986666666666666 59.239999999999995a16.013333333333332 2.0933333333333333 0 1 0 32.026666666666664 0 16.013333333333332 2.0933333333333333 0 1 0 -32.026666666666664 0Z" fill="#45413c" opacity=".15" stroke-width="1"></path>
  <path d="M16.37333333333333 44.38666666666666c2.786666666666666 1.48 12 2.893333333333333 17.05333333333333 0s7.2 -4.413333333333333 7.32 -5.333333333333333 1.853333333333333 -18.666666666666664 3.1333333333333333 -25.186666666666667S43.06666666666666 4.573333333333333 38.666666666666664 4a13.96 13.96 0 0 0 -10.333333333333332 3.1333333333333333 52.93333333333334 52.93333333333334 0 0 0 -5.453333333333333 5.92c-1.16 1.7466666666666666 0.3466666666666667 5.226666666666667 0.3466666666666667 5.226666666666667s-4.76 12.653333333333332 -5.799999999999999 17.52 -2.16 7.986666666666666 -1.0533333333333332 8.586666666666666Z" fill="none" stroke="#45413c" stroke-linecap="round" stroke-linejoin="round" stroke-width="1"></path>
  <path d="M38.666666666666664 4a13.96 13.96 0 0 0 -10.333333333333332 3.1333333333333333 52.93333333333334 52.93333333333334 0 0 0 -5.453333333333333 5.92c1.7466666666666666 -2.08 9.866666666666667 -3.253333333333333 11.719999999999999 -2.6666666666666665s3.0266666666666664 4.76 3.0266666666666664 4.76 -3.253333333333333 10.333333333333332 -6.239999999999999 17.759999999999998 -5.6 13.146666666666665 -7.573333333333332 13.12a18.173333333333332 18.173333333333332 0 0 0 9.626666666666665 -1.6266666666666665c5.1066666666666665 -2.9066666666666667 7.2 -4.413333333333333 7.32 -5.333333333333333s1.853333333333333 -18.666666666666664 3.1333333333333333 -25.186666666666667S43.06666666666666 4.573333333333333 38.666666666666664 4Z" fill="none" stroke="#45413c" stroke-linecap="round" stroke-linejoin="round" stroke-width="1"></path>
  <path d="M26.666666666666664 13.04s-6.84 8 -8.693333333333332 10.666666666666666 -2.1999999999999997 3.8266666666666667 -2.0933333333333333 5.226666666666667S18.666666666666664 31.16 18.666666666666664 31.16s7.173333333333333 -0.8266666666666667 8 -1.8666666666666665 4.68 -13.12 4.68 -13.12A3.706666666666666 3.706666666666666 0 0 0 26.666666666666664 13.04Z" fill="#e0e0e0" stroke-width="1"></path>
  <path d="M24.77333333333333 27.839999999999996c-2.88 -0.9199999999999999 -7.613333333333333 -1.5333333333333332 -8.706666666666667 -0.5733333333333333a4.586666666666666 4.586666666666666 0 0 0 -0.15999999999999998 1.68c0.12 1.3333333333333333 2.8 2.213333333333333 2.8 2.213333333333333s7.173333333333333 -0.8266666666666667 8 -1.8666666666666665l0.14666666666666667 -0.24a5.506666666666666 5.506666666666666 0 0 0 -2.08 -1.2133333333333334Z" fill="#87898c" stroke-width="1"></path>
  <path d="M26.666666666666664 13.04s-6.84 8 -8.693333333333332 10.666666666666666 -2.1999999999999997 3.8266666666666667 -2.0933333333333333 5.226666666666667S18.666666666666664 31.16 18.666666666666664 31.16s7.173333333333333 -0.8266666666666667 8 -1.8666666666666665 4.68 -13.12 4.68 -13.12A3.706666666666666 3.706666666666666 0 0 0 26.666666666666664 13.04Z" fill="none" stroke="#45413c" stroke-linecap="round" stroke-linejoin="round" stroke-width="1"></path>
  <path d="M43.6 7.119999999999999S36.45333333333333 26.733333333333334 37.33333333333333 29.64a6.746666666666666 6.746666666666666 0 0 0 4 4s1.5599999999999998 0 2.293333333333333 -3.6799999999999997 3.3866666666666667 -18.426666666666666 2.5733333333333333 -21.093333333333334 -2.5999999999999996 -1.7466666666666666 -2.5999999999999996 -1.7466666666666666Z" fill="#e0e0e0" stroke-width="1"></path>
  <path d="M44.36 12.933333333333332c0.6533333333333333 1.0266666666666666 0.84 4.346666666666666 0.8133333333333332 8.106666666666666 0.8133333333333332 -5.133333333333333 1.4933333333333334 -10.666666666666666 1.0266666666666666 -12.173333333333334 -0.8133333333333332 -2.6666666666666665 -2.5999999999999996 -1.7466666666666666 -2.5999999999999996 -1.7466666666666666s-0.6399999999999999 1.7866666666666666 -1.5333333333333332 4.346666666666666a2.6666666666666665 2.6666666666666665 0 0 1 2.293333333333333 1.4666666666666668Z" fill="#f0f0f0" stroke-width="1"></path>
  <path d="M43.6 7.119999999999999S36.45333333333333 26.733333333333334 37.33333333333333 29.64a6.746666666666666 6.746666666666666 0 0 0 4 4s1.5599999999999998 0 2.293333333333333 -3.6799999999999997 3.3866666666666667 -18.426666666666666 2.5733333333333333 -21.093333333333334 -2.5999999999999996 -1.7466666666666666 -2.5999999999999996 -1.7466666666666666Z" fill="none" stroke="#45413c" stroke-linecap="round" stroke-linejoin="round" stroke-width="1"></path>
  <path d="M17.159999999999997 36.93333333333333s5.866666666666667 -0.4933333333333333 7.6 0" fill="none" stroke="#45413c" stroke-linecap="round" stroke-linejoin="round" stroke-width="1"></path>
</svg>